<svg xmlns="http://www.w3.org/2000/svg" xmlns:xlink="http://www.w3.org/1999/xlink" width="800" height="800" viewBox="0 0 24 24"><defs><path id="a" d="m0 0 1 3h10l1-3z"/><path id="c" d="M4.01867032 7H15.8260605c.036409 0 .0723583.0019917.1077471.00587329L18.2075854.65922773C18.3493483.26353445 18.7208253 0 19.1368299 0h2.8739988c.5458808 0 .9884047.44771525.9884047 1s-.4425239 1-.9884047 1h-2.1809321l-4.0629962 11.3407723C15.6251376 13.7364655 15.2536606 14 14.8376559 14H4.95360962c-.42543941 0-.80314721-.2754301-.93768296-.6837722L1.05071278 4.31622777C.83737186 3.66869665 1.31375252 3 1.98839574 3h8.89564166c.5458808 0 .9884046.44771525.9884046 1s-.4425238 1-.9884046 1H3.35973391l.65893641 2Zm.65893642 2 .98840463 3h8.47857793l1.0747935-3H4.67760674Zm2.25281214 10c-1.09176161 0-1.97680926-.8954305-1.97680926-2s.88504765-2 1.97680926-2c1.0917616 0 1.97680925.8954305 1.97680925 2s-.88504765 2-1.97680925 2Zm6.91883242 0c-1.0917616 0-1.9768093-.8954305-1.9768093-2s.8850477-2 1.9768093-2c1.0917616 0 1.9768092.8954305 1.9768092 2s-.8850476 2-1.9768092 2Z"/></defs><g fill="none" fill-rule="evenodd" transform="translate(0 3)"><g transform="translate(4 10)"><mask id="b" fill="#fff"><use xlink:href="#a"/></mask><use xlink:href="#a" fill="#D8D8D8"/><g fill="#FFA0A0" mask="url(#b)"><path d="M-4-13h24v24H-4z"/></g></g><mask id="d" fill="#fff"><use xlink:href="#c"/></mask><use xlink:href="#c" fill="#000" fill-rule="nonzero"/><g fill="#7600FF" mask="url(#d)"><path d="M0-3h24v24H0z"/></g></g></svg>