<svg xmlns="http://www.w3.org/2000/svg" xml:space="preserve" width="800" height="800" fill-rule="evenodd" stroke-linejoin="round" stroke-miterlimit="2" clip-rule="evenodd" viewBox="0 0 32 32"><path fill="#90e0ef" d="M29 13c-1.656 0-3 1.344-3 3s1.344 3 3 3v4c0 1.105-.895 2-2 2H5c-1.105 0-2-.895-2-2v-4c1.656 0 3-1.344 3-3s-1.344-3-3-3V9c0-1.105.895-2 2-2h22c1.105 0 2 .895 2 2v4Z"/><path fill="#1990a7" d="M29 14c.552 0 1-.448 1-1V9c0-1.657-1.343-3-3-3H5C3.343 6 2 7.343 2 9v4c0 .552.448 1 1 1 1.104 0 2 .896 2 2s-.896 2-2 2c-.552 0-1 .448-1 1v4c0 1.657 1.343 3 3 3h22c1.657 0 3-1.343 3-3v-4c-.01-.588-.372-.897-1-1-1.104 0-2-.896-2-2s.896-2 2-2Zm-7-6v2c0 .552-.448 1-1 1s-1-.448-1-1V8H5c-.552 0-1 .448-1 1v3.126c1.724.445 3 2.011 3 3.874s-1.276 3.429-3 3.874V23c0 .552.448 1 1 1h15v-2c0-.552.448-1 1-1s1 .448 1 1v2h5c.552 0 1-.448 1-1v-3.126c-1.724-.445-3-2.012-3-3.874 0-1.863 1.276-3.429 3-3.874V9c0-.552-.448-1-1-1h-5Zm-2 6v4c0 .552.448 1 1 1s1-.448 1-1v-4c0-.552-.448-1-1-1s-1 .448-1 1Z"/></svg>